<?xml version="1.0" standalone="no"?>
<!DOCTYPE svg PUBLIC "-//W3C//DTD SVG 20010904//EN"
 "http://www.w3.org/TR/2001/REC-SVG-20010904/DTD/svg10.dtd">
<svg version="1.0" xmlns="http://www.w3.org/2000/svg"
 width="400.000000pt" height="400.000000pt" viewBox="0 0 400.000000 400.000000"
 preserveAspectRatio="xMidYMid meet">
<metadata>
Created by potrace 1.16, written by Peter Selinger 2001-2019
</metadata>
<g transform="translate(0.000000,400.000000) scale(0.100000,-0.100000)"
fill="#000000" stroke="none">
<path d="M1520 3170 c-107 -82 -196 -153 -198 -159 -6 -19 69 -143 83 -137 19
7 398 246 412 260 9 8 -1 32 -40 99 -28 48 -54 87 -57 86 -3 0 -93 -67 -200
-149z"/>
<path d="M2311 3218 c-23 -50 -38 -94 -34 -98 12 -12 438 -210 450 -210 10 0
63 118 63 139 0 9 -415 261 -430 261 -4 0 -26 -41 -49 -92z"/>
<path d="M2342 2938 c-87 -29 -166 -143 -197 -283 l-17 -75 -62 0 -61 0 -13
76 c-14 93 -39 149 -88 204 -78 87 -190 105 -302 50 -102 -51 -168 -146 -208
-298 -9 -37 -21 -71 -25 -76 -7 -8 -159 -35 -199 -36 -12 0 -15 18 -16 103 0
84 -4 109 -23 145 -57 111 -219 153 -349 91 -25 -12 -76 -51 -114 -87 -185
-175 -180 -390 10 -499 26 -15 48 -28 50 -29 2 -1 -12 -26 -31 -55 -105 -165
-103 -321 4 -413 49 -41 192 -113 330 -165 57 -21 108 -45 113 -54 17 -26 -1
-44 -50 -52 -81 -12 -353 -82 -469 -120 -130 -44 -306 -113 -319 -126 -25 -23
13 -18 132 20 276 87 715 201 727 189 3 -2 11 -21 20 -41 15 -37 15 -37 -10
-47 -217 -82 -525 -234 -678 -333 -74 -48 -105 -77 -81 -77 3 0 112 53 242
119 232 116 530 251 556 251 7 0 19 -12 27 -26 22 -42 98 -103 137 -110 23 -5
52 -1 84 11 27 9 50 16 52 14 1 -2 15 -35 31 -74 95 -235 186 -364 289 -411
107 -48 269 -56 359 -16 95 42 153 117 221 289 24 60 58 138 75 172 28 54 35
61 54 56 12 -4 30 -9 39 -11 33 -9 90 15 145 62 l55 47 51 -18 c108 -38 369
-150 552 -237 105 -49 196 -92 203 -95 6 -3 12 1 12 9 0 37 -421 248 -695 348
-49 19 -91 34 -92 35 -1 1 7 20 19 44 18 37 24 41 47 37 256 -52 503 -112 773
-189 39 -11 63 -3 38 13 -28 18 -245 92 -370 126 -69 19 -197 49 -285 67 -88
17 -162 32 -164 34 -2 1 0 17 3 35 6 30 14 36 84 67 208 93 423 229 463 294
36 60 16 163 -51 257 l-21 29 63 42 c83 56 193 163 226 219 57 96 24 257 -68
330 -56 44 -160 90 -235 103 -178 30 -285 -79 -285 -291 l0 -64 -37 6 c-21 3
-76 10 -123 16 -161 19 -146 11 -164 93 -32 143 -101 248 -191 292 -47 22
-146 29 -193 13z m175 -114 c73 -42 134 -149 149 -261 l6 -50 -90 23 c-94 24
-247 44 -332 44 -58 0 -59 5 -35 87 17 57 60 126 95 150 67 47 134 50 207 7z
m-744 15 c78 -21 149 -118 163 -221 l7 -48 -70 0 c-93 0 -227 -24 -333 -59
-47 -16 -87 -27 -89 -25 -2 1 4 35 13 74 34 152 108 248 216 281 36 10 50 10
93 -2z m1599 -95 c60 -21 144 -80 168 -119 26 -42 25 -97 -1 -152 -27 -56
-118 -147 -210 -213 -41 -28 -74 -54 -73 -58 0 -4 15 -38 33 -75 61 -125 33
-211 -104 -314 -56 -43 -308 -183 -328 -183 -3 0 -8 11 -11 24 -3 14 -28 53
-55 88 l-48 64 61 55 c57 52 65 56 122 61 74 7 147 38 192 80 28 28 45 66 25
56 -153 -77 -167 -82 -227 -82 -80 0 -140 27 -215 99 -32 30 -61 55 -64 55
-35 0 53 -124 114 -162 27 -17 49 -35 49 -40 0 -10 -44 -53 -77 -75 -21 -14
-25 -12 -65 20 -45 37 -156 100 -197 112 -13 4 -107 93 -210 197 l-186 190
-66 -50 -66 -50 24 59 c13 32 27 85 31 116 l7 58 76 3 76 3 12 -59 c14 -72 68
-186 110 -235 71 -80 204 -111 290 -68 77 40 139 139 157 251 4 22 12 40 19
40 6 0 38 -9 70 -20 65 -22 75 -24 75 -12 0 5 -23 19 -52 33 -30 14 -45 25
-35 27 14 3 161 -15 273 -33 l31 -5 13 77 c16 99 47 202 69 227 9 10 25 22 36
27 25 11 101 3 157 -17z m-2367 -17 c40 -40 63 -111 72 -224 3 -50 10 -83 17
-83 6 1 73 9 149 19 75 9 137 16 137 15 0 -1 -24 -17 -52 -34 -52 -31 -52 -31
-18 -26 19 3 47 9 62 12 24 5 28 3 34 -22 3 -16 22 -61 40 -101 56 -118 141
-172 255 -161 l50 5 -48 -49 c-68 -71 -157 -140 -247 -193 l-78 -46 -69 52
c-89 66 -96 79 -58 104 54 36 102 111 106 168 l4 52 -20 -44 c-54 -113 -137
-171 -256 -179 -49 -3 -90 1 -129 12 -32 10 -60 15 -63 12 -3 -3 16 -19 42
-35 53 -33 115 -46 179 -38 40 6 46 3 124 -59 45 -36 82 -69 82 -74 0 -5 -22
-25 -49 -45 -50 -36 -111 -108 -111 -131 0 -7 -5 -16 -10 -19 -15 -9 -245 106
-316 158 -132 97 -138 225 -19 403 l43 64 -51 26 c-29 14 -74 46 -101 72 -81
78 -94 138 -52 229 50 107 170 193 270 193 41 0 53 -5 81 -33z m933 -264 c-8
-110 -73 -216 -165 -270 -82 -48 -188 -26 -248 53 -33 43 -65 123 -65 162 0
25 6 30 53 45 30 9 56 17 59 17 3 0 10 -18 17 -39 38 -129 191 -95 191 42 0
51 1 52 114 55 l49 2 -5 -67z m349 61 c29 -4 51 -10 48 -14 -9 -15 17 -78 43
-103 65 -62 140 -40 149 45 l5 45 67 -17 66 -17 -2 -58 c-7 -208 -217 -300
-359 -158 -56 56 -104 170 -104 251 0 36 1 36 87 26z m-32 -406 c58 -61 105
-115 105 -119 0 -5 -156 -9 -347 -9 -340 0 -347 0 -328 19 51 48 251 216 306
256 l61 45 49 -41 c27 -22 96 -90 154 -151z m273 -215 c85 -50 205 -163 231
-216 22 -45 29 -139 12 -165 -6 -11 -26 -12 -85 -7 -54 5 -76 4 -76 -4 0 -15
43 -31 83 -31 51 0 63 -12 47 -49 -7 -17 -16 -33 -20 -36 -3 -2 -35 5 -70 16
-43 13 -67 16 -74 9 -14 -14 -5 -20 54 -39 28 -9 52 -21 52 -26 1 -6 -14 -21
-33 -34 -52 -36 -139 -26 -391 45 l-208 58 0 67 0 66 101 83 c96 80 289 274
289 292 0 16 26 7 88 -29z m-926 -68 c74 -69 218 -171 319 -227 l78 -43 1 -71
0 -71 -286 -72 c-247 -62 -290 -71 -318 -61 -31 10 -95 65 -85 74 2 2 28 11
57 20 30 10 52 24 52 32 0 18 -27 18 -80 -1 -59 -21 -64 -20 -83 20 -19 39
-25 35 72 52 25 5 46 14 49 22 4 11 -12 13 -74 10 l-79 -4 -3 35 c-6 61 15
107 76 166 55 53 218 173 236 174 4 0 35 -25 68 -55z m469 -463 c30 -11 119
-36 199 -57 80 -21 148 -41 152 -44 10 -9 -63 -216 -102 -289 -75 -142 -153
-193 -288 -193 -151 0 -249 62 -335 211 -32 56 -109 249 -105 262 2 6 85 33
183 60 99 27 191 54 205 58 35 12 31 12 91 -8z"/>
<path d="M3285 2606 c-50 -22 -78 -86 -83 -188 l-4 -88 39 14 c72 25 140 65
167 96 46 56 31 131 -34 165 -35 18 -46 18 -85 1z m83 -58 c20 -20 14 -73 -12
-101 -26 -28 -96 -67 -121 -67 -19 0 -19 13 0 77 19 63 55 103 93 103 15 0 33
-5 40 -12z"/>
<path d="M789 2561 c-46 -46 -37 -122 21 -169 18 -15 126 -67 159 -77 l24 -7
-5 88 c-7 134 -46 194 -126 194 -35 0 -49 -6 -73 -29z m125 -47 c33 -33 73
-164 51 -164 -17 0 -111 55 -131 77 -66 71 11 155 80 87z"/>
</g>
</svg>
