<?xml version="1.0" encoding="UTF-8" standalone="no"?>
<svg
   xmlns:dc="http://purl.org/dc/elements/1.1/"
   xmlns:cc="http://creativecommons.org/ns#"
   xmlns:rdf="http://www.w3.org/1999/02/22-rdf-syntax-ns#"
   xmlns:svg="http://www.w3.org/2000/svg"
   xmlns="http://www.w3.org/2000/svg"
   xmlns:sodipodi="http://sodipodi.sourceforge.net/DTD/sodipodi-0.dtd"
   xmlns:inkscape="http://www.inkscape.org/namespaces/inkscape"
   id="svg22"
   version="1.1"
   viewBox="0 0 24 24"
   height="24"
   width="24"
   sodipodi:docname="rdest.svg"
   inkscape:version="0.92.4 (5da689c313, 2019-01-14)">
  <sodipodi:namedview
     pagecolor="#ffffff"
     bordercolor="#666666"
     borderopacity="1"
     objecttolerance="10"
     gridtolerance="10"
     guidetolerance="10"
     inkscape:pageopacity="0"
     inkscape:pageshadow="2"
     inkscape:window-width="1920"
     inkscape:window-height="1001"
     id="namedview17"
     showgrid="false"
     inkscape:snap-center="true"
     inkscape:zoom="33.666667"
     inkscape:cx="9.8032648"
     inkscape:cy="12.413737"
     inkscape:window-x="2391"
     inkscape:window-y="-9"
     inkscape:window-maximized="1"
     inkscape:current-layer="layer2" />
  <metadata
     id="metadata28">
    <rdf:RDF>
      <cc:Work
         rdf:about="">
        <dc:format>image/svg+xml</dc:format>
        <dc:type
           rdf:resource="http://purl.org/dc/dcmitype/StillImage" />
        <dc:title></dc:title>
      </cc:Work>
    </rdf:RDF>
  </metadata>
  <defs
     id="defs26" />
  <g
     inkscape:groupmode="layer"
     id="layer1"
     inkscape:label="bg">
    <path
       style="fill:#3d6a62;fill-opacity:1;stroke:#000000;stroke-width:0.94848001px;stroke-linecap:butt;stroke-linejoin:miter;stroke-opacity:1"
       d="m 17.710621,9.355992 c 1.73894,0.646158 0.867156,1.1771 0.263982,3.122337 l -3.252818,9.056038 -2.222429,-0.727777 c 0.496357,-1.087369 2.184088,-6.524815 3.486019,-9.504882 0.53076,-1.21489 0.669904,-2.5328759 1.725246,-1.945716 z"
       id="path4621-1-2"
       inkscape:connector-curvature="0"
       sodipodi:nodetypes="ccccsc" />
    <path
       style="fill:#3d6a62;fill-opacity:1;stroke:#000000;stroke-width:0.94848001px;stroke-linecap:butt;stroke-linejoin:miter;stroke-opacity:1"
       d="m 6.1865294,11.867073 c 1.3957607,-1.222 1.4479227,-0.202595 2.8718223,1.253521 l 6.4173293,7.170113 -1.697607,1.608411 C 13.057875,20.94515 9.0785149,16.873424 7.0769339,14.310321 6.2609452,13.265416 5.1679364,12.515896 6.1865294,11.867073 Z"
       id="path4621-1"
       inkscape:connector-curvature="0"
       sodipodi:nodetypes="ccccsc" />
    <path
       style="fill:#3d6a62;fill-opacity:1;stroke:#000000;stroke-width:1.07699645px;stroke-linecap:butt;stroke-linejoin:miter;stroke-opacity:1"
       d="m 10.150668,5.4783132 c 2.032776,-0.5539391 1.581798,0.51187 2.318365,2.7039165 L 15.48804,18.681313 12.955228,19.479647 C 12.690273,18.149073 10.632947,12.020602 9.8529603,8.4126091 9.5349809,6.9417315 8.7874033,5.6347109 10.150668,5.4783132 Z"
       id="path4621"
       inkscape:connector-curvature="0"
       sodipodi:nodetypes="ccccsc" />
  </g>
  <g
     inkscape:groupmode="layer"
     id="layer3"
     inkscape:label="liście">
    <path
       style="fill:#3d6a62;fill-opacity:1;stroke:#000000;stroke-width:1.26123881px;stroke-linecap:butt;stroke-linejoin:miter;stroke-opacity:1"
       d="m 22.674724,11.325971 c -1.315355,0.508042 -8.47668,2.401373 -7.91855,10.93668 5.491388,2.710361 9.410285,-5.913431 7.91855,-10.93668 z"
       id="path53-4-5"
       inkscape:connector-curvature="0"
       sodipodi:nodetypes="ccc" />
    <path
       style="fill:#3d6a62;fill-opacity:1;stroke:#000000;stroke-width:1.29592896px;stroke-linecap:butt;stroke-linejoin:miter;stroke-opacity:1"
       d="M 1.3134806,17.539152 C 2.1100475,18.728008 5.5755613,25.421567 13.975034,22.701603 15.473449,16.515138 6.0009348,14.77324 1.3134806,17.539152 Z"
       id="path53-4"
       inkscape:connector-curvature="0"
       sodipodi:nodetypes="ccc" />
    <path
       style="fill:#3d6a62;fill-opacity:1;stroke:#3d6a62;stroke-width:0.66036844px;stroke-linecap:butt;stroke-linejoin:miter;stroke-opacity:1"
       d="m 11.034468,19.384471 c -2.9146762,3.261066 4.359675,3.856222 4.255389,0.01135 z"
       id="path4674"
       inkscape:connector-curvature="0"
       sodipodi:nodetypes="ccc" />
    <path
       style="fill:#3d6a62;fill-opacity:1;stroke:#3d6a62;stroke-width:0.66036844px;stroke-linecap:butt;stroke-linejoin:miter;stroke-opacity:1"
       d="m 14.820938,18.982791 c -2.914677,3.261066 4.359675,3.856222 4.255389,0.01135 z"
       id="path4674-7"
       inkscape:connector-curvature="0"
       sodipodi:nodetypes="ccc" />
    <path
       style="fill:#3d6a62;fill-opacity:1;stroke:#3d6a62;stroke-width:0.54284817px;stroke-linecap:butt;stroke-linejoin:miter;stroke-opacity:1"
       d="m 12.955228,19.479647 c 1.567113,0.45542 3.19102,1.451219 3.166047,0.748339 -0.01901,-0.534935 -0.676818,-1.289234 -1.398116,-2.130723 -0.681393,-0.794935 -1.416248,-1.699635 -1.829033,-1.507797 z"
       id="path4674-2"
       inkscape:connector-curvature="0"
       sodipodi:nodetypes="csscc" />
  </g>
  <g
     inkscape:groupmode="layer"
     id="layer2"
     inkscape:label="flowers">
    <path
       style="fill:#e5c5d7;fill-opacity:1;stroke:#000000;stroke-width:0.92102373px;stroke-linecap:butt;stroke-linejoin:miter;stroke-opacity:1"
       d="M 3.1953806,9.5041248 C 2.6886695,9.9568614 3.3461,10.410413 3.9331293,10.912986 3.8109902,13.045413 5.5698012,12.895398 6.1865294,11.867073 L 6.739333,11.688864 C 8.1657465,12.083 8.3689869,10.099041 7.2913532,9.4981021 7.1850959,8.5179411 7.086703,7.9629135 6.2018614,8.13901 5.9587346,7.3801934 5.5890719,5.5039034 4.5980899,6.698015 4.3710848,6.9715512 4.3216529,5.7649215 3.8502116,5.5166405 3.7193902,5.4477445 2.7073342,5.1892781 2.5083068,5.3676398 1.1899439,6.549113 3.2134377,7.4372055 2.2426886,7.4149649 1.3978254,7.3956084 2.5872904,8.9508059 3.1953806,9.5041248 Z"
       id="path4699"
       inkscape:connector-curvature="0"
       sodipodi:nodetypes="ccccccssssc" />
    <path
       style="fill:#e5c5d7;fill-opacity:1;stroke:#000000;stroke-width:0.92102373px;stroke-linecap:butt;stroke-linejoin:miter;stroke-opacity:1"
       d="m 17.522029,6.203308 c -0.664236,-0.143241 -0.644035,0.6552053 -0.7049,1.4255807 -1.795944,1.156178 -0.639601,2.4898913 0.554742,2.3833493 l 0.469405,0.342066 c 0.520782,1.385201 2.244418,0.381967 2.096092,-0.8429493 0.729927,-0.662731 1.120762,-1.068914 0.457661,-1.680676 C 20.865452,7.1875492 22.164886,5.784486 20.616257,5.6860095 20.261512,5.6634515 21.20798,4.9133873 21.131273,4.3861142 21.109983,4.2398004 20.723365,3.2694472 20.462033,3.2134995 18.730959,2.842898 19.203758,5.0015313 18.650456,4.2035922 18.168906,3.5091297 17.611527,5.386041 17.522029,6.203308 Z"
       id="path4699-5"
       inkscape:connector-curvature="0"
       sodipodi:nodetypes="ccccccssssc" />
    <path
       style="fill:#e5c5d7;fill-opacity:1;stroke:#000000;stroke-width:1.11183846px;stroke-linecap:butt;stroke-linejoin:miter;stroke-opacity:1"
       d="M 8.9145871,5.4564519 C 8.1433821,5.7657794 8.7412023,6.5226945 9.2372447,7.3071415 8.2684775,9.6329919 10.395352,10.140927 11.51868,9.2333659 l 0.719199,0.013817 c 1.525338,0.9858611 2.532057,-1.1436722 1.496992,-2.2258148 0.25427,-1.1313786 0.353284,-1.7867024 -0.755659,-1.9302755 0.0076,-0.937605 0.298797,-3.1671602 -1.3289,-2.218732 C 11.277455,3.0896176 11.68619,1.7280545 11.227719,1.2709049 11.100494,1.1440491 10.010056,0.46813275 9.7069345,0.5902261 7.6990408,1.3989761 9.7355793,3.1635547 8.602325,2.7663321 7.6160306,2.420621 8.4134062,4.6074595 8.9145871,5.4564519 Z"
       id="path4699-52"
       inkscape:connector-curvature="0"
       sodipodi:nodetypes="ccccccssssc" />
    <ellipse
       style="fill:#e59b9e;fill-opacity:1;stroke:none;stroke-width:0.61525989;stroke-opacity:1"
       id="path4723"
       cx="10.578697"
       cy="8.0577173"
       rx="0.79491746"
       ry="0.74599844"
       transform="rotate(0.33124361)" />
    <ellipse
       style="fill:#e59b9e;fill-opacity:1;stroke:none;stroke-width:0.39604831;stroke-opacity:1"
       id="path4723-5"
       cx="11.202212"
       cy="6.1544595"
       rx="0.49788812"
       ry="0.49352291"
       transform="matrix(0.99998136,0.00610637,-0.00547346,0.99998502,0,0)" />
    <ellipse
       style="fill:#e59b9e;fill-opacity:1;stroke:none;stroke-width:0.38962948;stroke-opacity:1"
       id="path4723-8"
       cx="9.7840624"
       cy="4.4158535"
       rx="0.51273805"
       ry="0.46382144"
       transform="matrix(0.99998447,0.00557264,-0.00599768,0.99998201,0,0)" />
    <ellipse
       style="fill:#e59b9e;fill-opacity:1;stroke:none;stroke-width:0.37817547;stroke-opacity:1"
       id="path4723-4"
       cx="5.2741299"
       cy="10.825411"
       rx="0.48303604"
       ry="0.46382052"
       transform="matrix(0.9999825,0.00591531,-0.00565025,0.99998404,0,0)" />
    <ellipse
       style="fill:#e59b9e;fill-opacity:1;stroke:none;stroke-width:0.21782959;stroke-opacity:1"
       id="path4723-7"
       cx="4.2074947"
       cy="9.9073219"
       rx="0.26026455"
       ry="0.28560218"
       transform="matrix(0.99997715,0.00676013,-0.00494412,0.99998778,0,0)" />
    <ellipse
       style="fill:#e59b9e;fill-opacity:1;stroke:none;stroke-width:0.33464646;stroke-opacity:1"
       id="path4723-77"
       cx="18.688906"
       cy="9.5763922"
       rx="0.468182"
       ry="0.37471449"
       transform="matrix(0.99998785,0.00493048,-0.00677883,0.99997702,0,0)" />
    <ellipse
       style="fill:#e59b9e;fill-opacity:1;stroke:none;stroke-width:0.18738389;stroke-opacity:1"
       id="path4723-1"
       cx="18.948246"
       cy="8.5192623"
       rx="0.26026183"
       ry="0.21134736"
       transform="matrix(0.99998749,0.00500254,-0.00668119,0.99997768,0,0)" />
    <path
       style="fill:#559b9e;fill-opacity:1;stroke:none;stroke-width:1.14393997px;stroke-linecap:butt;stroke-linejoin:miter;stroke-opacity:1"
       d="m 14.767575,20.630521 c -9.84505,2.246319 -4.922525,1.12316 0,0 z"
       id="path4780"
       inkscape:connector-curvature="0"
       sodipodi:nodetypes="cc" />
    <path
       style="fill:none;fill-opacity:1;stroke:#3d4c43;stroke-width:0.91968602px;stroke-linecap:butt;stroke-linejoin:round;stroke-opacity:1"
       d="m 20.49586,15.522345 c -1.576853,2.868395 -3.194361,4.332021 -5.774075,6.012022 0,0 3.730665,-1.898498 5.774075,-6.012022 z"
       id="path4782-0"
       inkscape:connector-curvature="0"
       sodipodi:nodetypes="ccc" />
    <path
       style="fill:none;fill-opacity:1;stroke:#3d4c43;stroke-width:0.91968602px;stroke-linecap:butt;stroke-linejoin:round;stroke-opacity:1"
       d="m 6.1968551,18.78239 c 2.7400396,1.790625 4.8556819,2.32222 7.9223179,2.592535 0,0 -4.1852244,0.07781 -7.9223179,-2.592535 z"
       id="path4782-0-8"
       inkscape:connector-curvature="0"
       sodipodi:nodetypes="ccc" />
    <path
       style="fill:#3d6a62;fill-opacity:1;stroke:#000000;stroke-width:1.01194715px;stroke-linecap:butt;stroke-linejoin:miter;stroke-opacity:1"
       d="m 11.966301,12.643994 c -0.448493,0.989994 -3.4268956,5.916855 2.144555,10.140435 4.843313,-1.569309 1.807307,-8.291853 -2.144555,-10.140435 z"
       id="path53-4-6"
       inkscape:connector-curvature="0"
       sodipodi:nodetypes="ccc" />
    <path
       style="fill:none;fill-opacity:1;stroke:#3d4c43;stroke-width:0.8182683px;stroke-linecap:butt;stroke-linejoin:round;stroke-opacity:1"
       d="m 13.058392,14.975423 c -0.31514,2.720313 0.157883,4.494297 1.264626,6.873816 0,0 -1.886488,-3.076116 -1.264626,-6.873816 z"
       id="path4782-0-8-2"
       inkscape:connector-curvature="0"
       sodipodi:nodetypes="ccc" />
  </g>
</svg>
